<svg xmlns="http://www.w3.org/2000/svg" width="142" height="123" viewBox="0 0 142 123">
    <g fill="none" fill-rule="evenodd" transform="translate(2 2)">
        <path stroke="#428DF1" stroke-linecap="round" stroke-width="3" d="M71 0h49.82C130.307 0 138 8.647 138 19.314v80.372c0 10.667-7.692 19.314-17.18 19.314H17.18C7.693 119 0 110.353 0 99.686V70" opacity=".25"/>
        <g transform="translate(18 28)">
            <path fill="#428DF1" fill-rule="nonzero" d="M42.516 56.67h.057V24.673a.8.8 0 0 0-.8-.8H20.196v.136H2.685c-.696 0-1.26.57-1.26 1.272v6.382h18.918v-.03h1.424v.03h.055a.71.71 0 0 1 .148-.016h15.663c.394 0 .712.321.712.718a.715.715 0 0 1-.712.717H21.97v.015H0v-7.816c0-1.495 1.201-2.707 2.684-2.707h17.658V4.273C20.343 1.93 22.23.03 24.559.03h66.225C93.112.029 95 1.929 95 4.273v47.263c0 2.344-1.888 4.244-4.216 4.244H64.583v2.078c0 3.728 2.834 6.736 6.311 6.736.95 0 .95 1.435 0 1.435H41.397c-.95 0-.95-1.435 0-1.435 3.477 0 6.311-3.008 6.311-6.736V55.78H43.94v1.669a2.696 2.696 0 0 1-2.686 2.705H2.684A2.695 2.695 0 0 1 0 57.45V35.763h1.424v21.686c0 .701.564 1.27 1.26 1.27h38.57c.697 0 1.262-.569 1.262-1.27v-.78zm20.643-.89H49.132v2.078c0 2.791-1.327 5.261-3.355 6.736h20.737c-2.028-1.475-3.355-3.945-3.355-6.736V55.78zM21.767 22.575h19.487a2.696 2.696 0 0 1 2.686 2.707V48.475h25.367c.393 0 .712.32.712.717a.715.715 0 0 1-.712.718H43.94v4.435h46.844a2.801 2.801 0 0 0 2.792-2.81V4.274c0-1.551-1.25-2.81-2.792-2.81H24.559a2.801 2.801 0 0 0-2.792 2.81v18.302zm-4.268 5.299c0 .624-.502 1.13-1.12 1.13-.62 0-1.123-.506-1.123-1.13 0-.624.503-1.13 1.122-1.13.619 0 1.121.506 1.121 1.13zm-4.475 0c0 .624-.503 1.13-1.122 1.13a1.126 1.126 0 0 1-1.121-1.13c0-.624.503-1.13 1.121-1.13.619 0 1.122.506 1.122 1.13zm-4.475 0c0 .624-.503 1.13-1.122 1.13-.619 0-1.121-.506-1.121-1.13 0-.624.502-1.13 1.12-1.13.62 0 1.123.506 1.123 1.13z"/>
            <rect width="10" height="10" x="53" y="8.029" fill="#9B9B9B" opacity=".15" rx=".768"/>
            <rect width="10" height="10" x="40" y="8.029" fill="#9B9B9B" opacity=".15" rx=".768"/>
            <rect width="10" height="10" x="27" y="8.029" fill="#9B9B9B" opacity=".15" rx=".768"/>
            <rect width="10" height="10" x="53" y="21.029" fill="#428DF1" opacity=".2" rx=".768"/>
            <rect width="10" height="10" x="65" y="8.029" fill="#428DF1" opacity=".2" rx=".768"/>
            <rect width="10" height="10" x="65" y="21.029" fill="#9B9B9B" opacity=".15" rx=".768"/>
            <rect width="10" height="10" x="53" y="33.029" fill="#9B9B9B" opacity=".15" rx=".768"/>
            <rect width="10" height="10" x="65" y="33.029" fill="#9B9B9B" opacity=".15" rx=".768"/>
            <rect width="10" height="10" x="78" y="8.029" fill="#9B9B9B" opacity=".15" rx=".768"/>
            <rect width="10" height="10" x="78" y="21.029" fill="#428DF1" opacity=".2" rx=".768"/>
            <rect width="10" height="10" x="78" y="33.029" fill="#428DF1" opacity=".2" rx=".768"/>
            <rect width="8.848" height="8.848" x="51.576" y="19.605" stroke="#428DF1" stroke-width="1.152" rx=".768"/>
            <rect width="8.848" height="8.848" x="64.576" y="7.605" stroke="#428DF1" stroke-width="1.152" rx=".768"/>
            <rect width="8.848" height="8.848" x="77.576" y="19.605" stroke="#428DF1" stroke-width="1.152" rx=".768"/>
            <rect width="8.848" height="8.848" x="77.576" y="32.605" stroke="#428DF1" stroke-width="1.152" rx=".768"/>
        </g>
        <rect width="42" height="37" x="16" y="54" fill="#428DF1" opacity=".18" rx="2"/>
    </g>
</svg>
