<svg xmlns="http://www.w3.org/2000/svg" width="126" height="126" viewBox="0 0 126 126">
    <g fill="none" fill-rule="evenodd">
        <path stroke="#428DF1" stroke-linecap="round" stroke-linejoin="round" stroke-width="3" d="M4.225 79.344c-5.687-20.499-.473-43.388 15.642-59.503 23.822-23.82 62.444-23.82 86.266 0 23.823 23.822 23.823 62.448 0 86.27-19.277 19.276-48.248 22.954-71.224 11.03" opacity=".3"/>
        <path fill="#428DF1" fill-rule="nonzero" d="M48.581 29.229c1.713-1.82 4.602-3.167 6.975-3.253.313 2.52-.797 5.038-2.463 6.865-1.663 1.813-4.367 3.235-7.036 3.045-.354-2.475.988-5.043 2.524-6.657zm11.529 33.5c-1.75 2.577-3.55 5.15-6.406 5.193-2.79.052-3.69-1.678-6.884-1.678-3.196 0-4.199 1.634-6.841 1.73-2.745.1-4.83-2.776-6.59-5.352-3.585-5.242-6.323-14.826-2.64-21.288 1.825-3.218 5.091-5.252 8.636-5.3 2.691-.057 5.241 1.836 6.895 1.836 1.643 0 4.745-2.272 7.988-1.932 1.36.053 5.187.551 7.644 4.18-.197.127-4.567 2.698-4.52 8.053.065 6.396 5.552 8.525 5.608 8.545-.056.148-.884 3.037-2.89 6.013z" opacity=".2"/>
        <path stroke="#428DF1" stroke-width="1.12" d="M44.581 29.229c1.713-1.82 4.602-3.167 6.975-3.253.313 2.52-.797 5.038-2.463 6.865-1.663 1.813-4.367 3.235-7.036 3.045-.354-2.475.988-5.043 2.524-6.657zm11.529 33.5c-1.75 2.577-3.55 5.15-6.406 5.193-2.79.052-3.69-1.678-6.884-1.678-3.196 0-4.199 1.634-6.841 1.73-2.745.1-4.83-2.776-6.59-5.352-3.585-5.242-6.323-14.826-2.64-21.288 1.825-3.218 5.091-5.252 8.636-5.3 2.691-.057 5.241 1.836 6.895 1.836 1.643 0 4.745-2.272 7.988-1.932 1.36.053 5.187.551 7.644 4.18-.197.127-4.567 2.698-4.52 8.053.065 6.396 5.552 8.525 5.608 8.545-.056.148-.884 3.037-2.89 6.013z"/>
        <path fill="#9B9B9B" fill-rule="nonzero" d="M63.979 70.659c-.556.084-.979.526-.979 1.052v10.526h15.647V68.933L63.98 70.659zm36.642-4.42a1.25 1.25 0 0 0-.868-.26l-18.87 2.298v13.96H101V67.063c0-.303-.134-.607-.379-.824zM80.882 83.715V97.7l18.87 2.276h.134c.268 0 .535-.087.735-.26.245-.217.379-.52.379-.824V83.715H80.882zm-17.882 0v10.526c0 .526.423.968.979 1.052l14.668 1.727V83.715H63z" opacity=".15"/>
        <path stroke="#428DF1" stroke-width="1.12" d="M62.055 67.214c-.293.047-.495.265-.495.497v9.966h14.527V65.562l-14.032 1.652zm36.206-4.545a.678.678 0 0 0-.44-.134l-18.379 2.238v12.904H98.44V63.063a.546.546 0 0 0-.179-.394zM79.442 80.275v12.928l18.31 2.213h.134c.146 0 .28-.046.364-.12a.548.548 0 0 0 .19-.404V80.275H79.442zm-17.882 0v9.966c0 .234.206.454.484.496l14.043 1.653V80.275H61.56z"/>
    </g>
</svg>
